<svg xmlns="http://www.w3.org/2000/svg" viewBox="0 0 64 64" role="img" aria-label="Glitch PD favicon">
  <rect width="64" height="64" rx="12" fill="#06070a"/>
  <rect x="7" y="7" width="50" height="50" rx="10" fill="none" stroke="#00f5ff" stroke-width="2.5" opacity="0.55"/>
  <rect x="9" y="9" width="50" height="50" rx="10" fill="none" stroke="#ff3bd4" stroke-width="2.5" opacity="0.45"/>

  <g opacity="0.35" fill="#00f5ff">
    <path d="M16 15h10c6 0 10 4 10 10s-4 10-10 10h-4v14h-6V15zm6 6v8h4c3 0 4-2 4-4s-1-4-4-4h-4z"/>
    <path d="M35 15h7c9 0 14 7 14 17s-5 17-14 17h-7V15zm6 6v22h1c5 0 8-4 8-11s-3-11-8-11h-1z"/>
  </g>
  <g opacity="0.33" fill="#ff3bd4">
    <path d="M12 15h10c6 0 10 4 10 10s-4 10-10 10h-4v14h-6V15zm6 6v8h4c3 0 4-2 4-4s-1-4-4-4h-4z"/>
    <path d="M31 15h7c9 0 14 7 14 17s-5 17-14 17h-7V15zm6 6v22h1c5 0 8-4 8-11s-3-11-8-11h-1z"/>
  </g>
  <g fill="#e9f2ff">
    <path d="M14 15h10c6 0 10 4 10 10s-4 10-10 10h-4v14h-6V15zm6 6v8h4c3 0 4-2 4-4s-1-4-4-4h-4z"/>
    <path d="M33 15h7c9 0 14 7 14 17s-5 17-14 17h-7V15zm6 6v22h1c5 0 8-4 8-11s-3-11-8-11h-1z"/>
  </g>
</svg>
